<?xml version="1.0" encoding="UTF-8"?>
<svg xmlns="http://www.w3.org/2000/svg" viewBox="0 0 512 512">
  <path fill="#252F3E" d="M261.5 208.5c-16.7 0-32.4 3.5-46.7 9.3-3.8 1.5-6.3 5.2-6.3 9.3v183.5c0 4.1 2.5 7.8 6.3 9.3 14.3 5.8 30 9.3 46.7 9.3 35.9 0 65-29.1 65-65v-90.7c0-35.9-29.1-65-65-65z"/>
  <path fill="#FF9900" d="M261.5 82.8c-89.7 0-162.5 72.8-162.5 162.5S171.8 407.8 261.5 407.8 424 335 424 245.3s-72.8-162.5-162.5-162.5zm0 292.5c-71.8 0-130-58.2-130-130s58.2-130 130-130 130 58.2 130 130-58.2 130-130 130z"/>
  <path fill="#FF9900" d="M261.5 147.8c-53.8 0-97.5 43.7-97.5 97.5s43.7 97.5 97.5 97.5 97.5-43.7 97.5-97.5-43.7-97.5-97.5-97.5zm0 162.5c-35.9 0-65-29.1-65-65s29.1-65 65-65 65 29.1 65 65-29.1 65-65 65z"/>
</svg> 