<?xml version="1.0" encoding="UTF-8"?>
<svg xmlns="http://www.w3.org/2000/svg" viewBox="0 0 512 512">
  <path fill="#2496ED" d="M256 32c-123.7 0-224 100.3-224 224s100.3 224 224 224 224-100.3 224-224S379.7 32 256 32zm133.1 224H389c0 73.6-59.7 133.3-133.3 133.3S122.3 329.6 122.3 256 182 122.7 255.7 122.7c36.8 0 70.2 14.9 94.3 39l28.5-28.5c-31.7-31.7-75.5-51.3-123.8-51.3C166.2 81.9 89 159.1 89 256s77.2 174.1 172.1 174.1S433.2 352.9 433.2 256h-44.1z"/>
  <path fill="#2496ED" d="M256 106.7c-82.5 0-149.3 66.9-149.3 149.3S173.5 405.3 256 405.3 405.3 338.5 405.3 256 338.5 106.7 256 106.7zm0 266.6c-64.7 0-117.3-52.6-117.3-117.3S191.3 138.7 256 138.7 373.3 191.3 373.3 256 320.7 373.3 256 373.3z"/>
  <path fill="#2496ED" d="M256 170.7c-47 0-85.3 38.3-85.3 85.3s38.3 85.3 85.3 85.3 85.3-38.3 85.3-85.3-38.3-85.3-85.3-85.3zm0 138.6c-29.4 0-53.3-23.9-53.3-53.3s23.9-53.3 53.3-53.3 53.3 23.9 53.3 53.3-23.9 53.3-53.3 53.3z"/>
  <circle fill="#2496ED" cx="256" cy="256" r="32"/>
</svg> 