<?xml version="1.0" encoding="UTF-8"?>
<svg xmlns="http://www.w3.org/2000/svg" viewBox="0 0 512 512">
  <path fill="#EA4335" d="M364.3 223.6l35.3-35.3 3.6-18.5c-53.9-47.5-134.8-47.5-188.7 0l39 39c31.3-21.9 74.1-21.9 110.8 14.8"/>
  <path fill="#4285F4" d="M403.2 169.8c-10.1-30.8-30.1-57.7-57-76.3-26.9-18.6-59-28.8-92.1-28.8-46.4 0-89.8 19.6-120.3 53.8l42.6 42.6c19.3-19.4 45.4-30.2 72.8-30.2 41.8 0 79.1 25.3 94.8 63.9l59.2-25"/>
  <path fill="#34A853" d="M189.8 400.7c25.7 16.3 55.6 25 86.3 25 41.8 0 81.5-16.1 111.5-44.8l-42.6-42.6c-19.3 19.4-45.4 30.2-72.8 30.2-41.8 0-79.1-25.3-94.8-63.9l-59.2 25c10.1 30.8 30.1 57.7 57 76.3 4.6 3.2 9.3 6.1 14.6 8.7"/>
  <path fill="#FBBC05" d="M177.6 304.6c-3.2-10.2-4.8-20.9-4.8-31.8 0-10.9 1.7-21.6 4.8-31.8l-59.2-25c-7.8 17.8-12 37.2-12 56.8s4.2 39 12 56.8l59.2-25"/>
</svg> 