<?xml version="1.0" encoding="UTF-8"?>
<svg xmlns="http://www.w3.org/2000/svg" viewBox="0 0 512 512">
  <path fill="#326CE5" d="M256 34.5l-142.9 52v173.2l142.9 52 142.9-52V86.5L256 34.5zm0 26.2l115.7 42.1-115.7 42.1-115.7-42.1L256 60.7zm-127.9 67.9l127.9 46.6 127.9-46.6v133.4l-127.9 46.6-127.9-46.6V128.6z"/>
  <path fill="#326CE5" d="M256 165.8c-49.8 0-90.2 40.4-90.2 90.2s40.4 90.2 90.2 90.2 90.2-40.4 90.2-90.2-40.4-90.2-90.2-90.2zm0 26.2c35.3 0 64 28.7 64 64s-28.7 64-64 64-64-28.7-64-64 28.7-64 64-64z"/>
  <path fill="#326CE5" d="M256 217.8c-21.2 0-38.4 17.2-38.4 38.4s17.2 38.4 38.4 38.4 38.4-17.2 38.4-38.4-17.2-38.4-38.4-38.4zm0 13.1c14 0 25.3 11.3 25.3 25.3s-11.3 25.3-25.3 25.3-25.3-11.3-25.3-25.3 11.3-25.3 25.3-25.3z"/>
  <path fill="#326CE5" d="M256 0C114.6 0 0 114.6 0 256s114.6 256 256 256 256-114.6 256-256S397.4 0 256 0zm0 26.2c127 0 229.8 102.8 229.8 229.8S383 485.8 256 485.8 26.2 383 26.2 256 129 26.2 256 26.2z"/>
</svg> 