<?xml version="1.0" encoding="UTF-8"?>
<svg xmlns="http://www.w3.org/2000/svg" viewBox="0 0 512 512">
  <path fill="#13AA52" d="M256 421.6c-18.1 0-33.2-6.8-42.9-10.9-5.4-2.3-11.3 1.8-10.9 7.6l3.5 51.6c0.2 2.6 1.8 4.8 4.2 5.8 13.3 5.5 27.8 8.2 42.5 8.2 14.7 0 29.2-2.7 42.5-8.2 2.4-1 4-3.2 4.2-5.8l3.5-51.6c0.4-5.8-5.5-9.9-10.9-7.6-9.7 4.1-24.8 10.9-42.9 10.9z"/>
  <path fill="#13AA52" d="M397.8 131.1c-2.8-12.1-8.4-23.2-16.4-32.8-8.1-9.6-18.2-17.3-29.8-22.7-11.5-5.4-24.1-8.1-37.1-8.1-13.1 0-25.6 2.7-37.1 8.1-11.6 5.4-21.7 13.1-29.8 22.7-8 9.6-13.6 20.7-16.4 32.8-2.8 12.1-2.8 24.9 0 37 2.8 12.1 8.4 23.2 16.4 32.8 8.1 9.6 18.2 17.3 29.8 22.7 11.5 5.4 24.1 8.1 37.1 8.1 13.1 0 25.6-2.7 37.1-8.1 11.6-5.4 21.7-13.1 29.8-22.7 8-9.6 13.6-20.7 16.4-32.8 2.8-12.1 2.8-24.9 0-37z"/>
  <path fill="#13AA52" d="M314.5 291.3c8.1-9.6 13.6-20.7 16.4-32.8 2.8-12.1 2.8-24.9 0-37-2.8-12.1-8.4-23.2-16.4-32.8-8.1-9.6-18.2-17.3-29.8-22.7-11.5-5.4-24.1-8.1-37.1-8.1-13.1 0-25.6 2.7-37.1 8.1-11.6 5.4-21.7 13.1-29.8 22.7-8 9.6-13.6 20.7-16.4 32.8-2.8 12.1-2.8 24.9 0 37 2.8 12.1 8.4 23.2 16.4 32.8 8.1 9.6 18.2 17.3 29.8 22.7 11.5 5.4 24.1 8.1 37.1 8.1 13.1 0 25.6-2.7 37.1-8.1 11.6-5.4 21.7-13.1 29.8-22.7z"/>
</svg> 