<?xml version="1.0" encoding="UTF-8"?>
<svg xmlns="http://www.w3.org/2000/svg" viewBox="0 0 512 512">
  <path fill="#539E43" d="M255.917 480.233c-3.957 0-7.914-1.04-11.417-3.12l-36.409-21.677c-5.438-3.043-2.78-4.12-0.986-4.744 7.237-2.525 8.712-3.12 16.43-7.465 0.808-0.469 1.87-0.283 2.702 0.195l27.988 16.717c1.009 0.561 2.438 0.561 3.37 0l109.164-63.543c1.009-0.586 1.657-1.76 1.657-2.975V265.563c0-1.24-0.648-2.389-1.682-3l-109.139-63.494c-1.009-0.586-2.341-0.586-3.37 0l-109.115 63.494c-1.034 0.611-1.682 1.76-1.682 2.975v126.989c0 1.215 0.648 2.389 1.682 2.975l29.915 17.356c16.186 8.125 26.122-1.436 26.122-11.002V276.565c0-1.76 1.412-3.12 3.169-3.12h13.837c1.732 0 3.169 1.36 3.169 3.12v125.815c0 21.553-11.711 33.921-32.097 33.921-6.262 0-11.198 0-24.96-6.805l-28.657-16.566c-7.089-4.095-11.466-11.76-11.466-19.934V265.563c0-8.174 4.377-15.839 11.466-19.909l109.164-63.568c6.921-3.925 16.137-3.925 23.009 0l109.164 63.568c7.089 4.095 11.466 11.735 11.466 19.909v126.989c0 8.174-4.377 15.839-11.466 19.934l-109.164 63.543C263.831 479.193 259.874 480.233 255.917 480.233zM301.052 379.868c-47.865 0-57.872-22.044-57.872-40.467 0-1.76 1.412-3.12 3.169-3.12h14.112c1.583 0 2.905 1.14 3.144 2.679 2.14 14.512 8.497 21.822 37.447 21.822 23.058 0 32.872-5.239 32.872-17.536 0-7.09-2.78-12.329-38.605-15.839-29.915-2.975-48.431-9.585-48.431-33.531 0-22.044 18.541-35.179 49.589-35.179 34.883 0 52.121 12.134 54.286 38.111 0.074 0.904-0.249 1.76-0.847 2.414-0.598 0.611-1.432 0.977-2.297 0.977h-14.162c-1.483 0-2.78-1.04-3.094-2.479-3.443-15.349-11.835-20.247-33.886-20.247-24.935 0-27.84 8.711-27.84 15.229 0 7.914 3.418 10.229 37.447 14.707 33.637 4.47 49.54 10.795 49.54 34.468C354.624 366.429 334.689 379.868 301.052 379.868z"/>
</svg> 