<?xml version="1.0" encoding="UTF-8"?>
<svg xmlns="http://www.w3.org/2000/svg" viewBox="0 0 512 512">
  <path fill="#336791" d="M323.7 280.9c-1.2 3.5-1.3 14.6 3.5 13.3 10.8-3 15.8-10.3 17.3-13.8 2.4-5.7-17.1-6.4-20.8 0.5zm-21.8-30.1c-11.3 1.2-11.9 19.4-1.2 20.3 11.5 1 13.4-19.2 1.2-20.3zm-47.9 186.3c0 0-0.9 0.3-2.4 0.8 0.6-0.1 1.5-0.2 2.4-0.3v-0.5zm172.9-176.7c1.5-12.9-35.8-17.9-51.7-5.3-34.5 27.4-15.4 106.2-54.8 106.2-38.7 0-13.6-31.8-2.8-92.1 1.4-7.8-1.7-17.1-14.5-22.5-11.2-4.7-33.5-12.7-47.4-9.9-30.9 6.2-32.8 49.8-22.9 88.1 4.8 18.7 15.8 38.5 15.8 38.5s-18.2 97.7-14.5 145.5c1.3 16.8 12.2 54.8 18.9 54.8 8.2 0 14.8-3.9 14.8-33.4 0-28.4 5.3-72.4 8.4-75.9 4.2 7.6 19.5 35.4 29.3 35.4 9.3 0 15.2-2.8 15.9-25.2 0.3-8.5 7.7-32.4 12.5-32.4 4.8 0 12.7 13.1 12.7 33.9 0 10.6-0.8 22.1 5.2 22.1 14.3 0 18.2-5.8 21.8-13.6 8.4-18.2 16.3-47.2 16.3-47.2s9.4-127.8 9.4-139.1c0-3.2 0.3-6.3 0.8-9.2 19.8-37.2 31.1-72.4 28.8-89.7zm-219.9 203.6c-1.5 1.8-3.3 3.2-5.4 4.1 1.9-0.9 3.7-2.2 5.4-4.1zm-12.9 6.4c-0.7 0.1-1.4 0.2-2.1 0.2 0.7-0.1 1.4-0.2 2.1-0.2zm-4.1 0.1h-0.4 0.4zm-6.4-0.7c0.2 0 0.4 0.1 0.6 0.1-0.2 0-0.4-0.1-0.6-0.1zm-2.3-0.6c0.3 0.1 0.5 0.2 0.8 0.2-0.3-0.1-0.5-0.1-0.8-0.2zm-1.5-0.5c0.2 0.1 0.4 0.1 0.6 0.2-0.2-0.1-0.4-0.1-0.6-0.2zm-1.3-0.5c0.2 0.1 0.4 0.2 0.6 0.2-0.2-0.1-0.4-0.2-0.6-0.2zm-1.2-0.5c0.2 0.1 0.4 0.2 0.6 0.2-0.2-0.1-0.4-0.2-0.6-0.2zm-1.1-0.5c0.2 0.1 0.4 0.2 0.6 0.2-0.2-0.1-0.4-0.2-0.6-0.2zm-1.1-0.6c0.2 0.1 0.4 0.2 0.6 0.3-0.2-0.1-0.4-0.2-0.6-0.3zm-1-0.6c0.2 0.1 0.4 0.2 0.6 0.3-0.2-0.1-0.4-0.2-0.6-0.3zm-1-0.6c0.2 0.1 0.4 0.2 0.6 0.3-0.2-0.1-0.4-0.2-0.6-0.3zm-1-0.6c0.2 0.1 0.4 0.2 0.6 0.3-0.2-0.1-0.4-0.2-0.6-0.3zm-1-0.7c0.2 0.1 0.4 0.2 0.6 0.3-0.2-0.1-0.4-0.2-0.6-0.3zm-1-0.7c0.2 0.1 0.4 0.3 0.6 0.4-0.2-0.1-0.4-0.3-0.6-0.4zm-1-0.7c0.2 0.1 0.4 0.3 0.6 0.4-0.2-0.1-0.4-0.3-0.6-0.4zm-1-0.8c0.2 0.1 0.4 0.3 0.6 0.4-0.2-0.1-0.4-0.3-0.6-0.4zm-1-0.8c0.2 0.2 0.4 0.3 0.6 0.5-0.2-0.2-0.4-0.3-0.6-0.5zm-1-0.8c0.2 0.2 0.4 0.3 0.6 0.5-0.2-0.2-0.4-0.3-0.6-0.5zm-1-0.9c0.2 0.2 0.4 0.3 0.6 0.5-0.2-0.2-0.4-0.3-0.6-0.5zm-1-0.9c0.2 0.2 0.4 0.4 0.6 0.5-0.2-0.2-0.4-0.4-0.6-0.5zm-1-1c0.2 0.2 0.4 0.4 0.6 0.6-0.2-0.2-0.4-0.4-0.6-0.6zm-1-1c0.2 0.2 0.4 0.4 0.6 0.6-0.2-0.2-0.4-0.4-0.6-0.6zm-1-1.1c0.2 0.2 0.4 0.4 0.6 0.6-0.2-0.2-0.4-0.4-0.6-0.6zm-1-1.1c0.2 0.2 0.4 0.4 0.6 0.7-0.2-0.2-0.4-0.4-0.6-0.7zm-1-1.2c0.2 0.2 0.4 0.5 0.6 0.7-0.2-0.2-0.4-0.5-0.6-0.7zm-1-1.2c0.2 0.2 0.4 0.5 0.6 0.7-0.2-0.2-0.4-0.5-0.6-0.7zm-1-1.3c0.2 0.2 0.4 0.5 0.6 0.8-0.2-0.3-0.4-0.5-0.6-0.8zm-1-1.4c0.2 0.3 0.4 0.5 0.6 0.8-0.2-0.3-0.4-0.5-0.6-0.8zm-1-1.4c0.2 0.3 0.4 0.6 0.6 0.8-0.2-0.3-0.4-0.6-0.6-0.8zm-1-1.5c0.2 0.3 0.4 0.6 0.6 0.9-0.2-0.3-0.4-0.6-0.6-0.9zm-1-1.6c0.2 0.3 0.4 0.6 0.6 0.9-0.2-0.3-0.4-0.6-0.6-0.9zm-1-1.7c0.2 0.3 0.4 0.6 0.6 1-0.2-0.3-0.4-0.7-0.6-1zm-1-1.8c0.2 0.3 0.4 0.7 0.6 1-0.2-0.3-0.4-0.7-0.6-1zm-1-1.9c0.2 0.3 0.4 0.7 0.6 1.1-0.2-0.4-0.4-0.7-0.6-1.1zm-1-2c0.2 0.4 0.4 0.7 0.6 1.1-0.2-0.4-0.4-0.8-0.6-1.1zm-1-2.1c0.2 0.4 0.4 0.8 0.6 1.2-0.2-0.4-0.4-0.8-0.6-1.2zm-1-2.3c0.2 0.4 0.4 0.8 0.6 1.3-0.2-0.4-0.4-0.8-0.6-1.3zm-1-2.4c0.2 0.4 0.4 0.9 0.6 1.3-0.2-0.4-0.4-0.9-0.6-1.3zm-1-2.6c0.2 0.4 0.4 0.9 0.6 1.4-0.2-0.5-0.4-0.9-0.6-1.4zm-1-2.8c0.2 0.5 0.4 1 0.6 1.5-0.2-0.5-0.4-1-0.6-1.5zm-1-3c0.2 0.5 0.4 1 0.6 1.6-0.2-0.5-0.4-1.1-0.6-1.6zm-1-3.2c0.2 0.5 0.4 1.1 0.6 1.7-0.2-0.6-0.4-1.1-0.6-1.7zm-1-3.5c0.2 0.6 0.4 1.2 0.6 1.8-0.2-0.6-0.4-1.2-0.6-1.8zm-1-3.8c0.2 0.6 0.4 1.3 0.6 1.9-0.2-0.7-0.4-1.3-0.6-1.9zm-1-4.1c0.2 0.7 0.4 1.4 0.6 2.1-0.2-0.7-0.4-1.4-0.6-2.1zm-1-4.5c0.2 0.7 0.4 1.5 0.6 2.3-0.2-0.8-0.4-1.5-0.6-2.3zm-1-5c0.2 0.8 0.4 1.6 0.6 2.5-0.2-0.8-0.4-1.7-0.6-2.5zm-1-5.5c0.2 0.9 0.4 1.8 0.6 2.7-0.2-0.9-0.4-1.8-0.6-2.7zm-1-6.2c0.2 1 0.4 2 0.6 3-0.2-1-0.4-2-0.6-3zm-1-7c0.2 1.1 0.4 2.3 0.6 3.4-0.2-1.2-0.4-2.3-0.6-3.4zm-1-8c0.2 1.3 0.4 2.6 0.6 3.9-0.2-1.3-0.4-2.6-0.6-3.9zm-1-9.3c0.2 1.5 0.4 3 0.6 4.6-0.2-1.5-0.4-3.1-0.6-4.6zm-1-11c0.2 1.8 0.4 3.6 0.6 5.4-0.2-1.8-0.4-3.6-0.6-5.4zm-1-13.3c0.2 2.2 0.4 4.4 0.6 6.6-0.2-2.2-0.4-4.4-0.6-6.6zm-1-16.7c0.2 2.7 0.4 5.5 0.6 8.3-0.2-2.8-0.4-5.6-0.6-8.3zm-1-22c0.2 3.6 0.4 7.2 0.6 10.9-0.2-3.7-0.4-7.3-0.6-10.9zm-1-31.7c0.2 5.2 0.4 10.4 0.6 15.7-0.2-5.3-0.4-10.5-0.6-15.7zm-1-53.3c0.2 8.7 0.4 17.5 0.6 26.4-0.2-8.9-0.4-17.7-0.6-26.4z"/>
</svg> 